<svg width="411" height="88" viewBox="0 0 411 88" fill="none" xmlns="http://www.w3.org/2000/svg">
<mask id="mask0_32_11" style="mask-type:alpha" maskUnits="userSpaceOnUse" x="0" y="0" width="411" height="88">
<path d="M93.0656 86.7876V1.17055H126.847C133.313 1.17055 138.832 2.32716 143.403 4.64038C148.002 6.92573 151.5 10.1726 153.897 14.381C156.322 18.5615 157.534 23.4806 157.534 29.1382C157.534 34.8237 156.308 39.715 153.855 43.8119C151.402 47.8809 147.849 51.0024 143.194 53.1762C138.567 55.3501 132.965 56.437 126.387 56.437H103.769V41.8888H123.46C126.917 41.8888 129.787 41.415 132.073 40.4675C134.358 39.5199 136.059 38.0985 137.174 36.2033C138.316 34.3082 138.888 31.9531 138.888 29.1382C138.888 26.2955 138.316 23.8987 137.174 21.9477C136.059 19.9968 134.344 18.5197 132.031 17.5164C129.746 16.4852 126.861 15.9696 123.377 15.9696H111.169V86.7876H93.0656ZM139.306 47.8252L160.586 86.7876H140.602L119.781 47.8252H139.306Z" fill="black"/>
<path d="M217.329 1.17055H235.432V56.7715C235.432 63.0144 233.941 68.477 230.958 73.1591C228.004 77.8413 223.865 81.4923 218.541 84.1121C213.218 86.704 207.016 88 199.936 88C192.829 88 186.613 86.704 181.29 84.1121C175.966 81.4923 171.827 77.8413 168.873 73.1591C165.918 68.477 164.441 63.0144 164.441 56.7715V1.17055H182.544V55.2247C182.544 58.4855 183.255 61.384 184.676 63.9202C186.126 66.4564 188.16 68.4491 190.78 69.8983C193.4 71.3476 196.452 72.0722 199.936 72.0722C203.448 72.0722 206.5 71.3476 209.092 69.8983C211.712 68.4491 213.733 66.4564 215.155 63.9202C216.604 61.384 217.329 58.4855 217.329 55.2247V1.17055Z" fill="black"/>
<path d="M316.057 1.17055V86.7876H300.421L263.17 32.9007H262.542V86.7876H244.439V1.17055H260.327L297.285 55.0157H298.038V1.17055H316.057Z" fill="black"/>
<path d="M339.719 1.17055V10.2005C339.719 12.7645 339.217 15.3843 338.214 18.0599C337.238 20.7075 335.928 23.2158 334.284 25.5848C332.639 27.9259 330.841 29.9186 328.89 31.5629L321.03 26.9226C322.424 24.7208 323.65 22.2822 324.71 19.6067C325.797 16.9311 326.34 13.8236 326.34 10.2841V1.17055H339.719Z" fill="black"/>
<path d="M392.479 25.7938C392.144 22.4215 390.709 19.8017 388.173 17.9344C385.636 16.0671 382.194 15.1335 377.846 15.1335C374.891 15.1335 372.397 15.5515 370.362 16.3876C368.328 17.1959 366.767 18.3246 365.68 19.7739C364.621 21.2231 364.091 22.8675 364.091 24.7069C364.035 26.2397 364.356 27.5775 365.053 28.7202C365.777 29.8629 366.767 30.8523 368.021 31.6884C369.275 32.4966 370.725 33.2073 372.369 33.8204C374.013 34.4057 375.769 34.9074 377.637 35.3254L385.33 37.1648C389.065 38.0009 392.493 39.1158 395.615 40.5093C398.736 41.9028 401.44 43.6168 403.725 45.6513C406.011 47.6858 407.781 50.0827 409.035 52.8418C410.317 55.6009 410.972 58.7642 411 62.3316C410.972 67.5712 409.634 72.114 406.986 75.9601C404.366 79.7783 400.576 82.7465 395.615 84.8646C390.681 86.9549 384.73 88 377.762 88C370.85 88 364.83 86.9409 359.701 84.8228C354.6 82.7047 350.615 79.5693 347.744 75.4166C344.901 71.2361 343.41 66.0662 343.27 59.9069H360.788C360.983 62.7775 361.805 65.1743 363.255 67.0974C364.732 68.9926 366.697 70.4279 369.15 71.4033C371.63 72.3509 374.432 72.8247 377.553 72.8247C380.619 72.8247 383.281 72.3788 385.539 71.4869C387.824 70.5951 389.594 69.3549 390.848 67.7663C392.103 66.1777 392.73 64.3522 392.73 62.2898C392.73 60.3667 392.158 58.7503 391.016 57.4404C389.901 56.1305 388.256 55.0157 386.082 54.096C383.936 53.1762 381.302 52.3401 378.18 51.5876L368.857 49.2466C361.638 47.4907 355.938 44.7455 351.757 41.0109C347.577 37.2763 345.5 32.2458 345.528 25.9192C345.5 20.7354 346.88 16.2065 349.667 12.3325C352.482 8.45859 356.342 5.43468 361.248 3.26081C366.154 1.08694 371.728 0 377.971 0C384.326 0 389.873 1.08694 394.611 3.26081C399.377 5.43468 403.084 8.45859 405.732 12.3325C408.38 16.2065 409.746 20.6936 409.829 25.7938H392.479Z" fill="black"/>
<path d="M0 26.4627V8.36105H55.6052C61.8486 8.36105 67.3116 9.8521 71.9941 12.8342C76.6767 15.7884 80.328 19.9272 82.948 25.2504C85.5401 30.5736 86.8362 36.7747 86.8362 43.8537C86.8362 50.9606 85.5401 57.1756 82.948 62.4988C80.328 67.822 76.6767 71.9607 71.9941 74.915C67.3116 77.8692 61.8486 79.3463 55.6052 79.3463H0V61.2447H54.0583C57.3194 61.2447 60.2181 60.534 62.7545 59.1126C65.2909 57.6633 67.2837 55.6288 68.7331 53.009C70.1824 50.3892 70.9071 47.3374 70.9071 43.8537C70.9071 40.342 70.1824 37.2903 68.7331 34.6983C67.2837 32.0785 65.2909 30.058 62.7545 28.6366C60.2181 27.1873 57.3194 26.4627 54.0583 26.4627H0Z" fill="black"/>
</mask>
<g mask="url(#mask0_32_11)">
<rect x="-35" y="-77" width="500.509" height="246" fill="black"/>
</g>
</svg>
