<svg width="84" height="18" viewBox="0 0 84 18" fill="none" xmlns="http://www.w3.org/2000/svg">
<mask id="mask0_17_77" style="mask-type:alpha" maskUnits="userSpaceOnUse" x="0" y="0" width="84" height="18">
<path d="M18.9716 17.6932V0.238636H25.858C27.1761 0.238636 28.3011 0.474432 29.233 0.946023C30.1705 1.41193 30.8835 2.07386 31.3722 2.93182C31.8665 3.78409 32.1136 4.78693 32.1136 5.94034C32.1136 7.09943 31.8636 8.09659 31.3636 8.93182C30.8636 9.76136 30.1392 10.3977 29.1903 10.8409C28.2472 11.2841 27.1051 11.5057 25.7642 11.5057H21.1534V8.53977H25.1676C25.8722 8.53977 26.4574 8.44318 26.9233 8.25C27.3892 8.05682 27.7358 7.76705 27.9631 7.38068C28.196 6.99432 28.3125 6.5142 28.3125 5.94034C28.3125 5.3608 28.196 4.87216 27.9631 4.47443C27.7358 4.0767 27.3864 3.77557 26.9148 3.57102C26.4489 3.3608 25.8608 3.25568 25.1506 3.25568H22.6619V17.6932H18.9716ZM28.3977 9.75L32.7358 17.6932H28.6619L24.4176 9.75H28.3977Z" fill="black"/>
<path d="M44.3028 0.238636H47.9932V11.5739C47.9932 12.8466 47.6892 13.9602 47.0813 14.9148C46.479 15.8693 45.6352 16.6136 44.55 17.1477C43.4648 17.6761 42.2006 17.9403 40.7574 17.9403C39.3085 17.9403 38.0415 17.6761 36.9562 17.1477C35.871 16.6136 35.0273 15.8693 34.425 14.9148C33.8227 13.9602 33.5216 12.8466 33.5216 11.5739V0.238636H37.2119V11.2585C37.2119 11.9233 37.3568 12.5142 37.6466 13.0312C37.942 13.5483 38.3568 13.9545 38.8909 14.25C39.425 14.5455 40.0472 14.6932 40.7574 14.6932C41.4733 14.6932 42.0955 14.5455 42.6239 14.25C43.158 13.9545 43.5699 13.5483 43.8597 13.0312C44.1551 12.5142 44.3028 11.9233 44.3028 11.2585V0.238636Z" fill="black"/>
<path d="M64.4288 0.238636V17.6932H61.2413L53.6476 6.70739H53.5197V17.6932H49.8294V0.238636H53.068L60.6021 11.2159H60.7555V0.238636H64.4288Z" fill="black"/>
<path d="M69.2523 0.238636V2.07955C69.2523 2.60227 69.15 3.13636 68.9455 3.68182C68.7466 4.22159 68.4795 4.73295 68.1443 5.21591C67.8091 5.69318 67.4426 6.09943 67.0449 6.43466L65.4426 5.48864C65.7267 5.03977 65.9767 4.54261 66.1926 3.99716C66.4142 3.4517 66.525 2.81818 66.525 2.09659V0.238636H69.2523Z" fill="black"/>
<path d="M80.0075 5.25852C79.9393 4.57102 79.6467 4.03693 79.1297 3.65625C78.6126 3.27557 77.9109 3.08523 77.0246 3.08523C76.4223 3.08523 75.9138 3.17045 75.499 3.34091C75.0842 3.50568 74.7661 3.7358 74.5445 4.03125C74.3286 4.3267 74.2206 4.66193 74.2206 5.03693C74.2092 5.34943 74.2746 5.62216 74.4166 5.85511C74.5643 6.08807 74.7661 6.28977 75.0217 6.46023C75.2774 6.625 75.5729 6.76989 75.9081 6.89489C76.2433 7.0142 76.6013 7.11648 76.982 7.2017L78.5501 7.5767C79.3115 7.74716 80.0104 7.97443 80.6467 8.25852C81.2831 8.54261 81.8342 8.89205 82.3001 9.30682C82.7661 9.72159 83.1268 10.2102 83.3825 10.7727C83.6439 11.3352 83.7774 11.9801 83.7831 12.7074C83.7774 13.7756 83.5047 14.7017 82.9649 15.4858C82.4308 16.2642 81.6581 16.8693 80.6467 17.3011C79.6411 17.7273 78.428 17.9403 77.0075 17.9403C75.5984 17.9403 74.3712 17.7244 73.3257 17.2926C72.2859 16.8608 71.4734 16.2216 70.8882 15.375C70.3087 14.5227 70.0047 13.4688 69.9763 12.2131H73.5473C73.5871 12.7983 73.7547 13.2869 74.0501 13.679C74.3513 14.0653 74.7518 14.358 75.2518 14.5568C75.7575 14.75 76.3286 14.8466 76.9649 14.8466C77.5899 14.8466 78.1325 14.7557 78.5928 14.5739C79.0587 14.392 79.4195 14.1392 79.6751 13.8153C79.9308 13.4915 80.0587 13.1193 80.0587 12.6989C80.0587 12.3068 79.9422 11.9773 79.7092 11.7102C79.482 11.4432 79.1467 11.2159 78.7036 11.0284C78.2661 10.8409 77.7291 10.6705 77.0928 10.517L75.1922 10.0398C73.7206 9.68182 72.5587 9.12216 71.7064 8.3608C70.8541 7.59943 70.4308 6.57386 70.4365 5.28409C70.4308 4.22727 70.7121 3.30398 71.2803 2.51421C71.8541 1.72443 72.6411 1.10795 73.6411 0.664773C74.6411 0.221591 75.7774 0 77.0501 0C78.3456 0 79.4763 0.221591 80.4422 0.664773C81.4138 1.10795 82.1695 1.72443 82.7092 2.51421C83.249 3.30398 83.5274 4.21875 83.5445 5.25852H80.0075Z" fill="black"/>
<path d="M0 5.39489V1.70455H11.3352C12.608 1.70455 13.7216 2.00852 14.6761 2.61648C15.6307 3.21875 16.375 4.0625 16.9091 5.14773C17.4375 6.23295 17.7017 7.49716 17.7017 8.94034C17.7017 10.3892 17.4375 11.6562 16.9091 12.7415C16.375 13.8267 15.6307 14.6705 14.6761 15.2727C13.7216 15.875 12.608 16.1761 11.3352 16.1761H0V12.4858H11.0199C11.6847 12.4858 12.2756 12.3409 12.7926 12.0511C13.3097 11.7557 13.7159 11.3409 14.0114 10.8068C14.3068 10.2727 14.4545 9.65057 14.4545 8.94034C14.4545 8.22443 14.3068 7.60227 14.0114 7.07386C13.7159 6.53977 13.3097 6.12784 12.7926 5.83807C12.2756 5.54261 11.6847 5.39489 11.0199 5.39489H0Z" fill="black"/>
</mask>
<g mask="url(#mask0_17_77)">
<rect x="-18" width="120" height="58.98" fill="#FF0000"/>
</g>
</svg>
